<svg version="1" xmlns="http://www.w3.org/2000/svg" width="346.667" height="346.667" viewBox="0 0 260.000000 260.000000"><path d="M46 87.9c0 5.5.9 5.1-13.2 6.7l-5.8.6V158h12l.2-27.8.3-27.7 9.5-1c7.8-.8 9.5-1.3 9.8-2.8.2-.9.8-1.5 1.3-1.2.5.3.6-.1.3-.9-.4-.9-3-2.1-6.5-2.8L48 92.6v-4.8c0-2.6-.4-4.8-1-4.8-.5 0-1 2.2-1 4.9zm50-.1v4.8l-8.1 1.1c-4.4.6-8.2 1.3-8.5 1.6-.8.7 29.4 61.7 30.5 61.7.6 0 1.7-1.3 2.6-2.9 1.5-2.9 1.3-3.3-10.5-27.1-6.6-13.2-12-24.2-12-24.4 0-.2 2.8-.6 6.3-1 3.4-.4 7.7-.9 9.5-1.3l3.3-.5-.3-5.7c-.3-6-.1-5.8-9.2-9.6L96 83v4.8z"/><path d="M241 89.8c0 .5.7 1.5 1.5 2.2 3.4 2.9 4.5 10.6 4.5 33 0 16.8-.4 22.8-1.6 27-3.2 10.7-9.4 16.8-20.2 19.5-4.8 1.3-13.4 1.5-48.8 1.3l-42.9-.3v-16.8l4.8-1.4 4.7-1.4V141c0-6.6-.2-12-.5-12s-5.4 9.9-11.5 22l-11 22H99l-2.5-5c-1.4-2.7-2.8-5-3.1-5-.3 0-2.3 1.4-4.4 3-8.2 6.5-7.9 6.5-48.9 7l-37.4.5 8.1 3.3 8.1 3.3 36.8-.3 36.8-.3 5-2.7 5.1-2.6 6.8 2.9c5.8 2.5 8.1 2.9 15.7 2.9 8.8 0 8.9 0 10.4-3 .9-1.7 1.7-3 1.9-3 .2 0 3.6 1.4 7.7 3.1l7.4 3 43.6-.3 43.5-.3 6-3c4.2-2.2 6.8-4.4 9.1-7.7 4.6-6.9 5.6-14.5 5.1-38.3-.3-18.2-.6-20.5-2.6-25-1.3-2.8-3.5-6.3-5-7.8-3.4-3.7-11.2-9.1-11.2-7.9zM3 93.9c0 .8 6.2 3.2 6.9 2.6.7-.8-.4-1.5-3.8-2.5-1.7-.5-3.1-.5-3.1-.1zm124.3-.3c.4.5 3.1 1.8 6 3.1 4.8 2 5.3 2.1 6.5.5 1-1.4 1-1.7-.5-2.3-3-1-12.8-2.1-12-1.3z"/><path d="M164.2 126.1l.3 26.1 6.3.1 6.2.2V107h48.2l-1.4-2.3c-2.7-4-6.7-4.6-34.1-4.6L164 100l.2 26.1z"/></svg>